# xmcd CD database file
#
# Track frame offsets:
#	150
#	18622
#	36513
#	53110
#	70799
#	87485
#	103895
#	122904
#	139585
#	158406
#	176475
#	192895
#	210025
#	230981
#	248300
#
# Disc length: 3545 seconds
#
# Revision: 1
# Processed by: cddbd v1.5.2PL0 Copyright (c) Steve Scherf et al.
# Submitted via: CDex 1.70beta2
#
DISCID=c80dd70f
DTITLE=김건모 - Bossa nova and Blues
DYEAR=2012
DGENRE=Blues
TTITLE0=빨간우산
TTITLE1=바보
TTITLE2=냄새
TTITLE3=My Son 
TTITLE4=서울의 달
TTITLE5=Say Goodbye 
TTITLE6=이 밤이 가면
TTITLE7=하루
TTITLE8=발가락
TTITLE9=두꺼비
TTITLE10=사랑이 날 힘들게 할 때
TTITLE11=첫사랑
TTITLE12=우리 스무 살 때
TTITLE13=내게 다가올 널 위해
TTITLE14=방랑
EXTD=YEAR: 2012
EXTT0=
EXTT1=
EXTT2=
EXTT3=
EXTT4=
EXTT5=
EXTT6=
EXTT7=
EXTT8=
EXTT9=
EXTT10=
EXTT11=
EXTT12=
EXTT13=
EXTT14=
PLAYORDER=
